<svg width="31" height="17" viewBox="0 0 31 17" fill="none" xmlns="http://www.w3.org/2000/svg">
<path d="M26.6355 14.168C25.8235 14.168 25.1002 13.9673 24.4655 13.566C23.8309 13.1647 23.3315 12.586 22.9675 11.83C22.6129 11.0647 22.4355 10.1547 22.4355 9.1C22.4355 8.04533 22.6129 7.14 22.9675 6.384C23.3315 5.61867 23.8309 5.03533 24.4655 4.634C25.1002 4.23267 25.8235 4.032 26.6355 4.032C27.4475 4.032 28.1709 4.23267 28.8055 4.634C29.4402 5.03533 29.9349 5.61867 30.2895 6.384C30.6535 7.14 30.8355 8.04533 30.8355 9.1C30.8355 10.1547 30.6535 11.0647 30.2895 11.83C29.9349 12.586 29.4402 13.1647 28.8055 13.566C28.1709 13.9673 27.4475 14.168 26.6355 14.168ZM26.6355 12.25C27.2329 12.25 27.6995 11.9933 28.0355 11.48C28.3809 10.9667 28.5535 10.1733 28.5535 9.1C28.5535 8.02667 28.3809 7.23333 28.0355 6.72C27.6995 6.20667 27.2329 5.95 26.6355 5.95C26.0475 5.95 25.5809 6.20667 25.2355 6.72C24.8995 7.23333 24.7315 8.02667 24.7315 9.1C24.7315 10.1733 24.8995 10.9667 25.2355 11.48C25.5809 11.9933 26.0475 12.25 26.6355 12.25Z" fill="#828C76"/>
<path d="M17.4376 15.5862C17.4376 16.3298 16.787 16.9327 15.9845 16.9327C15.182 16.9327 14.5314 16.3298 14.5314 15.5862C14.5314 14.8425 15.182 14.2396 15.9845 14.2396C16.787 14.2396 17.4376 14.8425 17.4376 15.5862Z" fill="#828C76"/>
<path d="M0.416785 2.50551C0.186601 2.50551 0 2.3189 0 2.08872C0 1.85854 0.186601 1.67194 0.416785 1.67194H1.49255C2.17006 1.67194 2.76259 2.12828 2.93561 2.78333L5.11093 11.0191C5.34277 11.8968 6.13675 12.5083 7.04461 12.5083H15.0542C15.9753 12.5083 16.7772 11.8793 16.9966 10.9847L17.7394 7.95635C17.8995 7.3035 17.4052 6.67335 16.733 6.67335H3.64357C3.45978 6.67335 3.29768 6.55296 3.24457 6.37701C3.1638 6.10945 3.36408 5.83978 3.64357 5.83978H16.8511C18.1404 5.83978 19.0929 7.04175 18.7982 8.29692L17.9759 11.799C17.7637 12.7029 16.9574 13.3419 16.0289 13.3419H6.41473C5.49265 13.3419 4.69007 12.7115 4.47165 11.8157L2.43115 3.44653C2.29648 2.89419 1.80164 2.50551 1.23312 2.50551H0.416785Z" fill="#828C76"/>
<ellipse cx="7.26575" cy="15.5862" rx="1.45313" ry="1.34653" fill="#828C76"/>
</svg>
