<svg width="294" height="62" viewBox="0 0 294 62" fill="none" xmlns="http://www.w3.org/2000/svg">
<path d="M3.88012 40.2H7.76812V53.832H16.1921V57H3.88012V40.2ZM31.0125 53.88V57H18.0045V40.2H30.7005V43.32H21.8685V46.968H29.6685V49.992H21.8685V53.88H31.0125ZM44.8101 53.4H37.0101L35.5221 57H31.5381L39.0261 40.2H42.8661L50.3781 57H46.2981L44.8101 53.4ZM43.5861 50.448L40.9221 44.016L38.2581 50.448H43.5861ZM54.3973 43.368H49.0213V40.2H63.6613V43.368H58.2853V57H54.3973V43.368ZM80.8012 40.2V57H76.9132V50.112H69.2812V57H65.3932V40.2H69.2812V46.824H76.9132V40.2H80.8012ZM97.4241 53.88V57H84.4161V40.2H97.1121V43.32H88.2801V46.968H96.0801V49.992H88.2801V53.88H97.4241ZM110.862 57L107.622 52.32H107.43H104.046V57H100.158V40.2H107.43C108.918 40.2 110.206 40.448 111.294 40.944C112.398 41.44 113.246 42.144 113.838 43.056C114.43 43.968 114.726 45.048 114.726 46.296C114.726 47.544 114.422 48.624 113.814 49.536C113.222 50.432 112.374 51.12 111.27 51.6L115.038 57H110.862ZM110.79 46.296C110.79 45.352 110.486 44.632 109.878 44.136C109.27 43.624 108.382 43.368 107.214 43.368H104.046V49.224H107.214C108.382 49.224 109.27 48.968 109.878 48.456C110.486 47.944 110.79 47.224 110.79 46.296ZM135.235 48.336H138.787V55.152C137.875 55.84 136.819 56.368 135.619 56.736C134.419 57.104 133.211 57.288 131.995 57.288C130.251 57.288 128.683 56.92 127.291 56.184C125.899 55.432 124.803 54.4 124.003 53.088C123.219 51.76 122.827 50.264 122.827 48.6C122.827 46.936 123.219 45.448 124.003 44.136C124.803 42.808 125.907 41.776 127.315 41.04C128.723 40.288 130.307 39.912 132.067 39.912C133.539 39.912 134.875 40.16 136.075 40.656C137.275 41.152 138.283 41.872 139.099 42.816L136.603 45.12C135.403 43.856 133.955 43.224 132.259 43.224C131.187 43.224 130.235 43.448 129.403 43.896C128.571 44.344 127.923 44.976 127.459 45.792C126.995 46.608 126.763 47.544 126.763 48.6C126.763 49.64 126.995 50.568 127.459 51.384C127.923 52.2 128.563 52.84 129.379 53.304C130.211 53.752 131.155 53.976 132.211 53.976C133.331 53.976 134.339 53.736 135.235 53.256V48.336ZM150.175 57.288C148.431 57.288 146.855 56.912 145.447 56.16C144.055 55.408 142.959 54.376 142.159 53.064C141.375 51.736 140.983 50.248 140.983 48.6C140.983 46.952 141.375 45.472 142.159 44.16C142.959 42.832 144.055 41.792 145.447 41.04C146.855 40.288 148.431 39.912 150.175 39.912C151.919 39.912 153.487 40.288 154.879 41.04C156.271 41.792 157.367 42.832 158.167 44.16C158.967 45.472 159.367 46.952 159.367 48.6C159.367 50.248 158.967 51.736 158.167 53.064C157.367 54.376 156.271 55.408 154.879 56.16C153.487 56.912 151.919 57.288 150.175 57.288ZM150.175 53.976C151.167 53.976 152.063 53.752 152.863 53.304C153.663 52.84 154.287 52.2 154.735 51.384C155.199 50.568 155.431 49.64 155.431 48.6C155.431 47.56 155.199 46.632 154.735 45.816C154.287 45 153.663 44.368 152.863 43.92C152.063 43.456 151.167 43.224 150.175 43.224C149.183 43.224 148.287 43.456 147.487 43.92C146.687 44.368 146.055 45 145.591 45.816C145.143 46.632 144.919 47.56 144.919 48.6C144.919 49.64 145.143 50.568 145.591 51.384C146.055 52.2 146.687 52.84 147.487 53.304C148.287 53.752 149.183 53.976 150.175 53.976ZM170.065 57.288C168.321 57.288 166.745 56.912 165.337 56.16C163.945 55.408 162.849 54.376 162.049 53.064C161.265 51.736 160.873 50.248 160.873 48.6C160.873 46.952 161.265 45.472 162.049 44.16C162.849 42.832 163.945 41.792 165.337 41.04C166.745 40.288 168.321 39.912 170.065 39.912C171.809 39.912 173.377 40.288 174.769 41.04C176.161 41.792 177.257 42.832 178.057 44.16C178.857 45.472 179.257 46.952 179.257 48.6C179.257 50.248 178.857 51.736 178.057 53.064C177.257 54.376 176.161 55.408 174.769 56.16C173.377 56.912 171.809 57.288 170.065 57.288ZM170.065 53.976C171.057 53.976 171.953 53.752 172.753 53.304C173.553 52.84 174.177 52.2 174.625 51.384C175.089 50.568 175.321 49.64 175.321 48.6C175.321 47.56 175.089 46.632 174.625 45.816C174.177 45 173.553 44.368 172.753 43.92C171.953 43.456 171.057 43.224 170.065 43.224C169.073 43.224 168.177 43.456 167.377 43.92C166.577 44.368 165.945 45 165.481 45.816C165.033 46.632 164.809 47.56 164.809 48.6C164.809 49.64 165.033 50.568 165.481 51.384C165.945 52.2 166.577 52.84 167.377 53.304C168.177 53.752 169.073 53.976 170.065 53.976ZM181.819 40.2H189.451C191.275 40.2 192.883 40.552 194.275 41.256C195.683 41.944 196.771 42.92 197.539 44.184C198.323 45.448 198.715 46.92 198.715 48.6C198.715 50.28 198.323 51.752 197.539 53.016C196.771 54.28 195.683 55.264 194.275 55.968C192.883 56.656 191.275 57 189.451 57H181.819V40.2ZM189.259 53.808C190.939 53.808 192.275 53.344 193.267 52.416C194.275 51.472 194.779 50.2 194.779 48.6C194.779 47 194.275 45.736 193.267 44.808C192.275 43.864 190.939 43.392 189.259 43.392H185.707V53.808H189.259ZM206.807 57.288C205.479 57.288 204.191 57.112 202.943 56.76C201.711 56.392 200.719 55.92 199.967 55.344L201.287 52.416C202.007 52.944 202.863 53.368 203.855 53.688C204.847 54.008 205.839 54.168 206.831 54.168C207.935 54.168 208.751 54.008 209.279 53.688C209.807 53.352 210.071 52.912 210.071 52.368C210.071 51.968 209.911 51.64 209.591 51.384C209.287 51.112 208.887 50.896 208.391 50.736C207.911 50.576 207.255 50.4 206.423 50.208C205.143 49.904 204.095 49.6 203.279 49.296C202.463 48.992 201.759 48.504 201.167 47.832C200.591 47.16 200.303 46.264 200.303 45.144C200.303 44.168 200.567 43.288 201.095 42.504C201.623 41.704 202.415 41.072 203.471 40.608C204.543 40.144 205.847 39.912 207.383 39.912C208.455 39.912 209.503 40.04 210.527 40.296C211.551 40.552 212.447 40.92 213.215 41.4L212.015 44.352C210.463 43.472 208.911 43.032 207.359 43.032C206.271 43.032 205.463 43.208 204.935 43.56C204.423 43.912 204.167 44.376 204.167 44.952C204.167 45.528 204.463 45.96 205.055 46.248C205.663 46.52 206.583 46.792 207.815 47.064C209.095 47.368 210.143 47.672 210.959 47.976C211.775 48.28 212.471 48.76 213.047 49.416C213.639 50.072 213.935 50.96 213.935 52.08C213.935 53.04 213.663 53.92 213.119 54.72C212.591 55.504 211.791 56.128 210.719 56.592C209.647 57.056 208.343 57.288 206.807 57.288ZM228.188 57.288C226.86 57.288 225.572 57.112 224.324 56.76C223.092 56.392 222.1 55.92 221.348 55.344L222.668 52.416C223.388 52.944 224.244 53.368 225.236 53.688C226.228 54.008 227.22 54.168 228.212 54.168C229.316 54.168 230.132 54.008 230.66 53.688C231.188 53.352 231.452 52.912 231.452 52.368C231.452 51.968 231.292 51.64 230.972 51.384C230.668 51.112 230.268 50.896 229.772 50.736C229.292 50.576 228.636 50.4 227.804 50.208C226.524 49.904 225.476 49.6 224.66 49.296C223.844 48.992 223.14 48.504 222.548 47.832C221.972 47.16 221.684 46.264 221.684 45.144C221.684 44.168 221.948 43.288 222.476 42.504C223.004 41.704 223.796 41.072 224.852 40.608C225.924 40.144 227.228 39.912 228.764 39.912C229.836 39.912 230.884 40.04 231.908 40.296C232.932 40.552 233.828 40.92 234.596 41.4L233.396 44.352C231.844 43.472 230.292 43.032 228.74 43.032C227.652 43.032 226.844 43.208 226.316 43.56C225.804 43.912 225.548 44.376 225.548 44.952C225.548 45.528 225.844 45.96 226.436 46.248C227.044 46.52 227.964 46.792 229.196 47.064C230.476 47.368 231.524 47.672 232.34 47.976C233.156 48.28 233.852 48.76 234.428 49.416C235.02 50.072 235.316 50.96 235.316 52.08C235.316 53.04 235.044 53.92 234.5 54.72C233.972 55.504 233.172 56.128 232.1 56.592C231.028 57.056 229.724 57.288 228.188 57.288ZM253.021 40.2V57H249.133V50.112H241.501V57H237.613V40.2H241.501V46.824H249.133V40.2H253.021ZM264.772 57.288C263.028 57.288 261.452 56.912 260.044 56.16C258.652 55.408 257.556 54.376 256.756 53.064C255.972 51.736 255.58 50.248 255.58 48.6C255.58 46.952 255.972 45.472 256.756 44.16C257.556 42.832 258.652 41.792 260.044 41.04C261.452 40.288 263.028 39.912 264.772 39.912C266.516 39.912 268.084 40.288 269.476 41.04C270.868 41.792 271.964 42.832 272.764 44.16C273.564 45.472 273.964 46.952 273.964 48.6C273.964 50.248 273.564 51.736 272.764 53.064C271.964 54.376 270.868 55.408 269.476 56.16C268.084 56.912 266.516 57.288 264.772 57.288ZM264.772 53.976C265.764 53.976 266.66 53.752 267.46 53.304C268.26 52.84 268.884 52.2 269.332 51.384C269.796 50.568 270.028 49.64 270.028 48.6C270.028 47.56 269.796 46.632 269.332 45.816C268.884 45 268.26 44.368 267.46 43.92C266.66 43.456 265.764 43.224 264.772 43.224C263.78 43.224 262.884 43.456 262.084 43.92C261.284 44.368 260.652 45 260.188 45.816C259.74 46.632 259.516 47.56 259.516 48.6C259.516 49.64 259.74 50.568 260.188 51.384C260.652 52.2 261.284 52.84 262.084 53.304C262.884 53.752 263.78 53.976 264.772 53.976ZM283.798 40.2C285.286 40.2 286.574 40.448 287.662 40.944C288.766 41.44 289.614 42.144 290.206 43.056C290.798 43.968 291.094 45.048 291.094 46.296C291.094 47.528 290.798 48.608 290.206 49.536C289.614 50.448 288.766 51.152 287.662 51.648C286.574 52.128 285.286 52.368 283.798 52.368H280.414V57H276.526V40.2H283.798ZM283.582 49.2C284.75 49.2 285.638 48.952 286.246 48.456C286.854 47.944 287.158 47.224 287.158 46.296C287.158 45.352 286.854 44.632 286.246 44.136C285.638 43.624 284.75 43.368 283.582 43.368H280.414V49.2H283.582Z" fill="#828C76"/>
<path d="M131.243 11.4533C132.211 12.4215 151.578 31.7881 152.546 32.7566C153.515 33.7251 151.998 35.2422 151.029 34.2736C150.061 33.3051 130.694 13.9385 129.726 12.9704C128.758 12.0022 130.275 10.4852 131.243 11.4533Z" fill="#7D6D31"/>
<path d="M136.607 6.09C137.575 7.05813 156.942 26.4247 157.91 27.3932C158.879 28.3618 157.362 29.8788 156.393 28.9103C155.424 27.9418 136.058 8.57519 135.09 7.60705C134.122 6.6389 135.639 5.12186 136.607 6.09Z" fill="#7D6D31"/>
<path d="M141.97 0.726228C142.938 1.69436 162.305 21.0609 163.274 22.0295C164.242 22.998 162.725 24.515 161.757 23.5465C160.788 22.578 141.421 3.21143 140.453 2.24328C139.485 1.27513 141.002 -0.241908 141.97 0.726228Z" fill="#7D6D31"/>
<path d="M135.09 27.3933C136.058 26.4252 155.424 7.05863 156.393 6.0901C157.362 5.12157 158.879 6.63862 157.91 7.60715C156.942 8.57568 137.575 27.9422 136.607 28.9104C135.639 29.8785 134.122 28.3615 135.09 27.3933Z" fill="#7D6D31"/>
<path d="M140.453 32.7567C141.421 31.7885 160.788 12.422 161.757 11.4535C162.725 10.485 164.242 12.002 163.274 12.9705C162.305 13.9391 142.938 33.3056 141.97 34.2737C141.002 35.2419 139.485 33.7248 140.453 32.7567Z" fill="#7D6D31"/>
<path d="M129.726 22.0296C130.694 21.0615 150.061 1.69492 151.029 0.726393C151.998 -0.242136 153.515 1.27491 152.546 2.24344C151.578 3.21197 132.211 22.5785 131.243 23.5467C130.275 24.5148 128.758 22.9978 129.726 22.0296Z" fill="#7D6D31"/>
<path d="M7.07526 18.6071C11.9686 18.6071 109.855 18.6071 114.751 18.6071C119.646 18.6071 119.646 20.3444 114.751 20.3444C109.855 20.3444 11.9687 20.3444 7.07526 20.3444C2.18184 20.3444 2.18189 18.6071 7.07526 18.6071Z" fill="#828C76"/>
<path d="M179.547 18.6071C184.44 18.6071 282.327 18.6071 287.222 18.6071C292.118 18.6071 292.118 20.3444 287.222 20.3444C282.327 20.3444 184.44 20.3444 179.547 20.3444C174.654 20.3444 174.654 18.6071 179.547 18.6071Z" fill="#828C76"/>
</svg>
