<svg width="21" height="17" viewBox="0 0 21 17" fill="none" xmlns="http://www.w3.org/2000/svg">
<path d="M1.61675 16.9999C0.81757 16.9999 0.250006 16.2215 0.494389 15.4606L1.71385 11.6637C2.25679 9.9733 3.82914 8.82684 5.60464 8.82684H10.5H14.9148C16.5745 8.82684 18.0695 9.83075 18.6975 11.3671L20.3614 15.4377C20.6662 16.1833 20.1178 16.9999 19.3123 16.9999C18.7684 16.9999 18.3011 16.6136 18.199 16.0793L17.7188 13.5672L17.5989 13.1195C17.2623 11.862 16.3385 10.8448 15.119 10.3892C14.6683 10.2208 14.1911 10.1345 13.71 10.1345H10.5H7.21363C6.78224 10.1345 6.34754 10.2045 5.93732 10.338C4.48579 10.8103 3.39948 12.0652 3.16281 13.5732L2.78133 16.0039C2.69132 16.5773 2.19724 16.9999 1.61675 16.9999Z" fill="#828C76"/>
<path d="M15.2505 3.92307C15.2505 4.81295 14.7689 5.65735 13.9135 6.29658C13.058 6.93588 11.8529 7.34615 10.5005 7.34615C9.14804 7.34615 7.943 6.93588 7.08747 6.29658C6.23203 5.65735 5.75049 4.81295 5.75049 3.92307C5.75049 3.0332 6.23203 2.1888 7.08747 1.54957C7.943 0.910274 9.14804 0.5 10.5005 0.5C11.8529 0.5 13.058 0.910274 13.9135 1.54957C14.7689 2.1888 15.2505 3.0332 15.2505 3.92307Z" stroke="#828C76"/>
</svg>
